<svg xmlns="http://www.w3.org/2000/svg" xmlns:xlink="http://www.w3.org/1999/xlink" width="733" zoomAndPan="magnify" viewBox="0 0 549.75 231.75" height="309" preserveAspectRatio="xMidYMid meet" version="1.0"><defs><g/><clipPath id="3192014485"><path d="M 21.355469 39.132812 L 136.382812 39.132812 L 136.382812 154.160156 L 21.355469 154.160156 Z M 21.355469 39.132812 " clip-rule="nonzero"/></clipPath><clipPath id="c27a61d9d3"><path d="M 78.871094 39.132812 C 47.105469 39.132812 21.355469 64.882812 21.355469 96.644531 C 21.355469 128.410156 47.105469 154.160156 78.871094 154.160156 C 110.632812 154.160156 136.382812 128.410156 136.382812 96.644531 C 136.382812 64.882812 110.632812 39.132812 78.871094 39.132812 Z M 78.871094 39.132812 " clip-rule="nonzero"/></clipPath></defs><g clip-path="url(#3192014485)"><g clip-path="url(#c27a61d9d3)"><path fill="#000000" d="M 21.355469 39.132812 L 136.382812 39.132812 L 136.382812 154.160156 L 21.355469 154.160156 Z M 21.355469 39.132812 " fill-opacity="1" fill-rule="nonzero"/></g></g><g fill="#ffffff" fill-opacity="1"><g transform="translate(45.200028, 153.875262)"><g><path d="M 59.515625 -8.515625 C 60.390625 -7.566406 60.828125 -6.382812 60.828125 -4.96875 C 60.828125 -3.226562 60.113281 -1.769531 58.6875 -0.59375 C 57.507812 0.351562 56.25 0.828125 54.90625 0.828125 C 53.164062 0.828125 51.742188 0.117188 50.640625 -1.296875 L 28.15625 -29.109375 L 22.25 -23.90625 L 22.25 -5.796875 C 22.25 -4.054688 21.710938 -2.65625 20.640625 -1.59375 C 19.578125 -0.53125 18.179688 0 16.453125 0 C 14.710938 0 13.3125 -0.53125 12.25 -1.59375 C 11.1875 -2.65625 10.65625 -4.054688 10.65625 -5.796875 L 10.65625 -86.609375 C 10.65625 -88.347656 11.1875 -89.75 12.25 -90.8125 C 13.3125 -91.882812 14.710938 -92.421875 16.453125 -92.421875 C 18.179688 -92.421875 19.578125 -91.882812 20.640625 -90.8125 C 21.710938 -89.75 22.25 -88.347656 22.25 -86.609375 L 22.25 -38.453125 L 51 -64.140625 C 52.019531 -65.160156 53.242188 -65.671875 54.671875 -65.671875 C 56.328125 -65.671875 57.664062 -65.039062 58.6875 -63.78125 C 59.71875 -62.75 60.234375 -61.523438 60.234375 -60.109375 C 60.234375 -58.453125 59.597656 -57.113281 58.328125 -56.09375 L 36.5625 -36.6875 Z M 59.515625 -8.515625 "/></g></g></g><g fill="#000000" fill-opacity="1"><g transform="translate(136.394669, 153.875262)"><g><path d="M 40 0.46875 C 33.6875 0.46875 28.046875 -0.925781 23.078125 -3.71875 C 18.109375 -6.519531 14.242188 -10.40625 11.484375 -15.375 C 8.722656 -20.351562 7.34375 -25.992188 7.34375 -32.296875 C 7.34375 -38.691406 8.722656 -44.375 11.484375 -49.34375 C 14.242188 -54.3125 18.109375 -58.195312 23.078125 -61 C 28.046875 -63.800781 33.6875 -65.203125 40 -65.203125 C 46.226562 -65.203125 51.804688 -63.800781 56.734375 -61 C 61.671875 -58.195312 65.535156 -54.3125 68.328125 -49.34375 C 71.128906 -44.375 72.53125 -38.691406 72.53125 -32.296875 C 72.53125 -25.992188 71.148438 -20.351562 68.390625 -15.375 C 65.628906 -10.40625 61.785156 -6.519531 56.859375 -3.71875 C 51.929688 -0.925781 46.3125 0.46875 40 0.46875 Z M 40 -10.171875 C 44.019531 -10.171875 47.625 -11.117188 50.8125 -13.015625 C 54.007812 -14.910156 56.492188 -17.53125 58.265625 -20.875 C 60.046875 -24.226562 60.9375 -28.035156 60.9375 -32.296875 C 60.9375 -36.554688 60.046875 -40.382812 58.265625 -43.78125 C 56.492188 -47.175781 54.007812 -49.816406 50.8125 -51.703125 C 47.625 -53.597656 44.019531 -54.546875 40 -54.546875 C 35.96875 -54.546875 32.351562 -53.597656 29.15625 -51.703125 C 25.96875 -49.816406 23.46875 -47.175781 21.65625 -43.78125 C 19.84375 -40.382812 18.9375 -36.554688 18.9375 -32.296875 C 18.9375 -28.035156 19.84375 -24.226562 21.65625 -20.875 C 23.46875 -17.53125 25.96875 -14.910156 29.15625 -13.015625 C 32.351562 -11.117188 35.96875 -10.171875 40 -10.171875 Z M 40 -10.171875 "/></g></g></g><g fill="#000000" fill-opacity="1"><g transform="translate(216.264387, 153.875262)"><g><path d="M 34.203125 0.46875 C 28.835938 0.46875 23.785156 -0.359375 19.046875 -2.015625 C 14.316406 -3.671875 10.609375 -5.835938 7.921875 -8.515625 C 6.898438 -9.546875 6.390625 -10.769531 6.390625 -12.1875 C 6.390625 -14.082031 7.175781 -15.617188 8.75 -16.796875 C 10.25 -17.898438 11.628906 -18.453125 12.890625 -18.453125 C 14.472656 -18.453125 15.972656 -17.742188 17.390625 -16.328125 C 18.890625 -14.671875 21.140625 -13.226562 24.140625 -12 C 27.140625 -10.78125 30.332031 -10.171875 33.71875 -10.171875 C 38.21875 -10.171875 41.707031 -10.921875 44.1875 -12.421875 C 46.675781 -13.921875 47.921875 -15.929688 47.921875 -18.453125 C 47.921875 -20.898438 46.695312 -22.929688 44.25 -24.546875 C 41.8125 -26.171875 37.671875 -27.535156 31.828125 -28.640625 C 16.679688 -31.554688 9.109375 -37.785156 9.109375 -47.328125 C 9.109375 -51.191406 10.25 -54.460938 12.53125 -57.140625 C 14.820312 -59.828125 17.820312 -61.84375 21.53125 -63.1875 C 25.238281 -64.53125 29.1875 -65.203125 33.375 -65.203125 C 38.5 -65.203125 43.09375 -64.375 47.15625 -62.71875 C 51.21875 -61.0625 54.429688 -58.769531 56.796875 -55.84375 C 57.816406 -54.582031 58.328125 -53.320312 58.328125 -52.0625 C 58.328125 -50.71875 57.660156 -49.492188 56.328125 -48.390625 C 55.453125 -47.765625 54.347656 -47.453125 53.015625 -47.453125 C 50.960938 -47.453125 49.109375 -48.203125 47.453125 -49.703125 C 45.472656 -51.515625 43.378906 -52.796875 41.171875 -53.546875 C 38.960938 -54.296875 36.28125 -54.671875 33.125 -54.671875 C 29.5 -54.671875 26.519531 -54.054688 24.1875 -52.828125 C 21.863281 -51.609375 20.703125 -49.894531 20.703125 -47.6875 C 20.703125 -46.101562 21.097656 -44.78125 21.890625 -43.71875 C 22.679688 -42.65625 24.179688 -41.671875 26.390625 -40.765625 C 28.597656 -39.859375 31.789062 -38.972656 35.96875 -38.109375 C 44.570312 -36.367188 50.664062 -33.957031 54.25 -30.875 C 57.84375 -27.800781 59.640625 -23.820312 59.640625 -18.9375 C 59.640625 -15.300781 58.648438 -12.003906 56.671875 -9.046875 C 54.703125 -6.085938 51.804688 -3.757812 47.984375 -2.0625 C 44.160156 -0.375 39.566406 0.46875 34.203125 0.46875 Z M 34.203125 0.46875 "/></g></g></g><g fill="#000000" fill-opacity="1"><g transform="translate(280.515131, 153.875262)"><g><path d="M 40 -65.203125 C 46.070312 -65.203125 51.570312 -63.757812 56.5 -60.875 C 61.425781 -58 65.328125 -54.054688 68.203125 -49.046875 C 71.085938 -44.035156 72.53125 -38.453125 72.53125 -32.296875 L 72.53125 -5.921875 C 72.53125 -4.179688 71.957031 -2.738281 70.8125 -1.59375 C 69.675781 -0.445312 68.238281 0.125 66.5 0.125 C 64.757812 0.125 63.316406 -0.445312 62.171875 -1.59375 C 61.035156 -2.738281 60.46875 -4.179688 60.46875 -5.921875 L 60.46875 -10.296875 C 57.707031 -6.898438 54.351562 -4.253906 50.40625 -2.359375 C 46.457031 -0.472656 42.195312 0.46875 37.625 0.46875 C 31.945312 0.46875 26.800781 -0.945312 22.1875 -3.78125 C 17.570312 -6.625 13.941406 -10.550781 11.296875 -15.5625 C 8.660156 -20.570312 7.34375 -26.148438 7.34375 -32.296875 C 7.34375 -38.453125 8.757812 -44.035156 11.59375 -49.046875 C 14.4375 -54.054688 18.363281 -58 23.375 -60.875 C 28.382812 -63.757812 33.925781 -65.203125 40 -65.203125 Z M 40 -10.171875 C 43.9375 -10.171875 47.503906 -11.132812 50.703125 -13.0625 C 53.898438 -15 56.40625 -17.644531 58.21875 -21 C 60.03125 -24.351562 60.9375 -28.117188 60.9375 -32.296875 C 60.9375 -36.484375 60.03125 -40.269531 58.21875 -43.65625 C 56.40625 -47.050781 53.898438 -49.710938 50.703125 -51.640625 C 47.503906 -53.578125 43.9375 -54.546875 40 -54.546875 C 36.050781 -54.546875 32.476562 -53.578125 29.28125 -51.640625 C 26.09375 -49.710938 23.570312 -47.050781 21.71875 -43.65625 C 19.863281 -40.269531 18.9375 -36.484375 18.9375 -32.296875 C 18.9375 -28.117188 19.863281 -24.351562 21.71875 -21 C 23.570312 -17.644531 26.09375 -15 29.28125 -13.0625 C 32.476562 -11.132812 36.050781 -10.171875 40 -10.171875 Z M 40 -10.171875 "/></g></g></g><g fill="#000000" fill-opacity="1"><g transform="translate(360.384849, 153.875262)"><g><path d="M 14.078125 1.890625 C 11.867188 1.890625 9.957031 1.082031 8.34375 -0.53125 C 6.726562 -2.144531 5.921875 -4.054688 5.921875 -6.265625 C 5.921875 -8.554688 6.726562 -10.507812 8.34375 -12.125 C 9.957031 -13.738281 11.867188 -14.546875 14.078125 -14.546875 C 16.285156 -14.546875 18.195312 -13.738281 19.8125 -12.125 C 21.4375 -10.507812 22.25 -8.554688 22.25 -6.265625 C 22.25 -4.054688 21.457031 -2.144531 19.875 -0.53125 C 18.300781 1.082031 16.367188 1.890625 14.078125 1.890625 Z M 14.078125 1.890625 "/></g></g></g><g fill="#000000" fill-opacity="1"><g transform="translate(388.546327, 153.875262)"><g><path d="M 40 -65.203125 C 46.070312 -65.203125 51.570312 -63.757812 56.5 -60.875 C 61.425781 -58 65.328125 -54.054688 68.203125 -49.046875 C 71.085938 -44.035156 72.53125 -38.453125 72.53125 -32.296875 L 72.53125 -5.921875 C 72.53125 -4.179688 71.957031 -2.738281 70.8125 -1.59375 C 69.675781 -0.445312 68.238281 0.125 66.5 0.125 C 64.757812 0.125 63.316406 -0.445312 62.171875 -1.59375 C 61.035156 -2.738281 60.46875 -4.179688 60.46875 -5.921875 L 60.46875 -10.296875 C 57.707031 -6.898438 54.351562 -4.253906 50.40625 -2.359375 C 46.457031 -0.472656 42.195312 0.46875 37.625 0.46875 C 31.945312 0.46875 26.800781 -0.945312 22.1875 -3.78125 C 17.570312 -6.625 13.941406 -10.550781 11.296875 -15.5625 C 8.660156 -20.570312 7.34375 -26.148438 7.34375 -32.296875 C 7.34375 -38.453125 8.757812 -44.035156 11.59375 -49.046875 C 14.4375 -54.054688 18.363281 -58 23.375 -60.875 C 28.382812 -63.757812 33.925781 -65.203125 40 -65.203125 Z M 40 -10.171875 C 43.9375 -10.171875 47.503906 -11.132812 50.703125 -13.0625 C 53.898438 -15 56.40625 -17.644531 58.21875 -21 C 60.03125 -24.351562 60.9375 -28.117188 60.9375 -32.296875 C 60.9375 -36.484375 60.03125 -40.269531 58.21875 -43.65625 C 56.40625 -47.050781 53.898438 -49.710938 50.703125 -51.640625 C 47.503906 -53.578125 43.9375 -54.546875 40 -54.546875 C 36.050781 -54.546875 32.476562 -53.578125 29.28125 -51.640625 C 26.09375 -49.710938 23.570312 -47.050781 21.71875 -43.65625 C 19.863281 -40.269531 18.9375 -36.484375 18.9375 -32.296875 C 18.9375 -28.117188 19.863281 -24.351562 21.71875 -21 C 23.570312 -17.644531 26.09375 -15 29.28125 -13.0625 C 32.476562 -11.132812 36.050781 -10.171875 40 -10.171875 Z M 40 -10.171875 "/></g></g></g><g fill="#000000" fill-opacity="1"><g transform="translate(468.416056, 153.875262)"><g><path d="M 17.875 0 C 16.132812 0 14.691406 -0.570312 13.546875 -1.71875 C 12.398438 -2.863281 11.828125 -4.300781 11.828125 -6.03125 L 11.828125 -58.6875 C 11.828125 -60.5 12.398438 -61.957031 13.546875 -63.0625 C 14.691406 -64.164062 16.132812 -64.71875 17.875 -64.71875 C 19.6875 -64.71875 21.144531 -64.164062 22.25 -63.0625 C 23.351562 -61.957031 23.90625 -60.5 23.90625 -58.6875 L 23.90625 -6.03125 C 23.90625 -4.300781 23.351562 -2.863281 22.25 -1.71875 C 21.144531 -0.570312 19.6875 0 17.875 0 Z M 17.859375 -75.25 C 15.734375 -75.25 13.898438 -76.019531 12.359375 -77.5625 C 10.828125 -79.101562 10.0625 -80.9375 10.0625 -83.0625 C 10.0625 -85.195312 10.828125 -87.03125 12.359375 -88.5625 C 13.898438 -90.101562 15.734375 -90.875 17.859375 -90.875 C 19.992188 -90.875 21.828125 -90.101562 23.359375 -88.5625 C 24.898438 -87.03125 25.671875 -85.195312 25.671875 -83.0625 C 25.671875 -80.9375 24.898438 -79.101562 23.359375 -77.5625 C 21.828125 -76.019531 19.992188 -75.25 17.859375 -75.25 Z M 17.859375 -75.25 "/></g></g></g></svg>